{
    "asset": {
        "version": "2.0",
        "generator": "Open Asset Import Library (assimp v5.2.cf7d3637)"
    },
    "extensionsUsed": [
        "KHR_materials_volume",
        "FB_ngon_encoding"
    ],
    "accessors": [
        {
            "bufferView": 0,
            "byteOffset": 0,
            "componentType": 5126,
            "count": 149202,
            "type": "VEC3",
            "max": [
                0.13370640575885774,
                0.2873869240283966,
                0.13047409057617188
            ],
            "min": [
                -0.1302281767129898,
                -0.25440487265586855,
                -0.13094714283943177
            ]
        },
        {
            "bufferView": 1,
            "byteOffset": 0,
            "componentType": 5126,
            "count": 149202,
            "type": "VEC3",
            "max": [
                0.9999825954437256,
                0.9999932050704956,
                0.9999966621398926
            ],
            "min": [
                -0.9999954700469971,
                -0.9999855756759644,
                -0.9999979734420776
            ]
        },
        {
            "bufferView": 2,
            "byteOffset": 0,
            "componentType": 5126,
            "count": 149202,
            "type": "VEC2",
            "max": [
                0.9967121481895447,
                0.9967736601829529
            ],
            "min": [
                0.0032878180500119926,
                0.011840105056762696
            ]
        },
        {
            "bufferView": 3,
            "byteOffset": 0,
            "componentType": 5125,
            "count": 149202,
            "type": "SCALAR",
            "max": [
                149201
            ],
            "min": [
                0
            ]
        }
    ],
    "buffers": [
        {
            "byteLength": 5371272,
            "uri": "result.bin"
        }
    ],
    "bufferViews": [
        {
            "buffer": 0,
            "byteOffset": 0,
            "byteLength": 1790424,
            "target": 34962
        },
        {
            "buffer": 0,
            "byteOffset": 1790424,
            "byteLength": 1790424,
            "target": 34962
        },
        {
            "buffer": 0,
            "byteOffset": 3580848,
            "byteLength": 1193616,
            "target": 34962
        },
        {
            "buffer": 0,
            "byteOffset": 4774464,
            "byteLength": 596808,
            "target": 34963
        }
    ],
    "images": [
        {
            "name": "Image_0",
            "uri": "data:image/jpeg;base64,"
        },
        {
            "name": "Image_1",
            "uri": "data:image/jpeg;base64,"
        }
    ],
    "materials": [
        {
            "name": "Material_0",
            "pbrMetallicRoughness": {
                "baseColorTexture": {
                    "index": 0
                },
                "metallicRoughnessTexture": {
                    "index": 1
                }
            },
            "doubleSided": true
        },
        {
            "name": "material"
        }
    ],
    "meshes": [
        {
            "name": "geometry_0",
            "primitives": [
                {
                    "mode": 4,
                    "material": 0,
                    "indices": 3,
                    "attributes": {
                        "POSITION": 0,
                        "NORMAL": 1,
                        "TEXCOORD_0": 2
                    }
                }
            ]
        }
    ],
    "nodes": [
        {
            "name": "high_poly",
            "matrix": [
                1.8457274436950684,
                0.0,
                0.0,
                0.0,
                0.0,
                1.8457274436950684,
                0.0,
                0.0,
                0.0,
                0.0,
                1.8457274436950684,
                0.0,
                0.0,
                0.0,
                0.0,
                1.0
            ],
            "mesh": 0
        }
    ],
    "samplers": [
        {
            "magFilter": 9729,
            "minFilter": 9987
        }
    ],
    "scenes": [
        {
            "nodes": [
                0
            ]
        }
    ],
    "textures": [
        {
            "source": 0,
            "sampler": 0
        },
        {
            "source": 1,
            "sampler": 0
        }
    ],
    "scene": 0
}